<svg width="1024" height="912" viewBox="0 0 1024 912" fill="none" xmlns="http://www.w3.org/2000/svg">
<path fill-rule="evenodd" clip-rule="evenodd" d="M449.403 289.81C522.653 271.156 606.332 285.91 663.151 334.161C722.527 384.583 745.581 463.711 743.916 539.91C742.287 614.498 718.405 695.191 654.346 737.185C595.635 775.673 520.34 736.54 449.403 732.976C385.28 729.755 312.157 759.346 264.792 717.614C216.785 675.317 217.806 601.396 230.274 539.91C240.653 488.727 290.163 460.115 325.091 420.25C366.173 373.36 387.8 305.497 449.403 289.81Z" fill="#F1F2EB"/>
<path fill-rule="evenodd" clip-rule="evenodd" d="M422.178 29.5934C553.915 -5.26322 704.409 22.3064 806.596 112.47C913.381 206.691 954.844 354.552 951.85 496.943C948.919 636.32 905.969 787.108 790.76 865.578C685.17 937.498 549.755 864.373 422.178 857.714C306.855 851.694 175.346 906.989 90.1611 829.008C3.82237 749.97 5.659 611.837 28.082 496.943C46.7482 401.298 135.79 347.833 198.607 273.339C272.492 185.72 311.386 58.9082 422.178 29.5934Z" stroke="#F1F2EB" stroke-width="30"/>
<path d="M328.562 219H292.938V165.748H328.562C343.134 165.748 353.611 167.789 359.994 171.871C365.14 175.161 368.072 179.639 368.789 185.305C369.111 187.754 369.271 190.117 369.271 192.393C369.271 194.644 369.111 197.007 368.789 199.48C368.492 201.93 367.676 204.317 366.34 206.643C365.004 208.943 362.876 211.021 359.957 212.877C357.062 214.732 353.079 216.217 348.008 217.33C342.961 218.443 336.479 219 328.562 219ZM326.447 205.826C337.803 205.826 344.223 202.956 345.707 197.217C346.103 195.609 346.301 194.001 346.301 192.393C346.301 190.76 346.09 189.152 345.67 187.568C345.274 185.96 344.408 184.513 343.072 183.227C341.761 181.915 339.782 180.876 337.135 180.109C334.488 179.318 330.925 178.922 326.447 178.922H315.277V205.826H326.447ZM442.34 219H378.215V165.748H439.408V178.922H400.555V187.271H433.396V197.514H400.555V205.826H442.34V219ZM496.445 219H475.701L445.865 165.785H468.502L486.092 203.822L503.645 165.785H526.281L496.445 219Z" fill="#F1F2EB"/>
<path d="M707.562 613H671.938V666.252H707.562C722.134 666.252 732.611 664.211 738.994 660.129C744.14 656.839 747.072 652.361 747.789 646.695C748.111 644.246 748.271 641.883 748.271 639.607C748.271 637.356 748.111 634.993 747.789 632.52C747.492 630.07 746.676 627.683 745.34 625.357C744.004 623.057 741.876 620.979 738.957 619.123C736.062 617.268 732.079 615.783 727.008 614.67C721.961 613.557 715.479 613 707.562 613ZM705.447 626.174C716.803 626.174 723.223 629.044 724.707 634.783C725.103 636.391 725.301 637.999 725.301 639.607C725.301 641.24 725.09 642.848 724.67 644.432C724.274 646.04 723.408 647.487 722.072 648.773C720.761 650.085 718.782 651.124 716.135 651.891C713.488 652.682 709.925 653.078 705.447 653.078H694.277V626.174H705.447ZM821.34 613H757.215V666.252H818.408V653.078H779.555V644.729H812.396V634.486H779.555V626.174H821.34V613ZM875.445 613H854.701L824.865 666.215H847.502L865.092 628.178L882.645 666.215H905.281L875.445 613Z" fill="#F1F2EB"/>
<path d="M283.486 312H257.031V248.938H283.486V312ZM344.307 312H317.852V264.539H293.154V248.938H369.004V264.539H344.307V312Z" fill="#F1F2EB"/>
<path d="M775.486 528H749.031V591.062H775.486V528ZM836.307 528H809.852V575.461H785.154V591.062H861.004V575.461H836.307V528Z" fill="#F1F2EB"/>
<path d="M143.922 372.848C138.617 372.848 134.342 372.283 131.098 371.152C127.853 370.004 125.383 368.436 123.688 366.449C121.992 364.444 120.853 362.138 120.27 359.531H137.742C139.036 361.391 141.096 362.32 143.922 362.32C146.747 362.32 148.807 361.391 150.102 359.531C150.211 359.349 150.266 359.185 150.266 359.039C150.266 358.547 149.609 358.182 148.297 357.945C147.003 357.69 145.061 357.499 142.473 357.371C139.21 357.225 135.783 356.879 132.191 356.332C124.189 355.092 120.188 351.875 120.188 346.68C120.188 346.242 120.215 345.777 120.27 345.285C120.853 342.678 121.992 340.382 123.688 338.395C125.383 336.389 127.853 334.822 131.098 333.691C134.342 332.543 138.617 331.969 143.922 331.969C149.227 331.969 153.501 332.543 156.746 333.691C159.991 334.822 162.461 336.389 164.156 338.395C165.852 340.382 166.991 342.678 167.574 345.285H150.102C148.807 343.426 146.747 342.496 143.922 342.496C141.096 342.496 139.036 343.426 137.742 345.285C137.651 345.431 137.605 345.568 137.605 345.695C137.605 346.133 138.225 346.461 139.465 346.68C140.723 346.88 142.564 347.053 144.988 347.199C147.431 347.345 150.029 347.582 152.781 347.91C155.534 348.238 158.104 348.812 160.492 349.633C162.898 350.435 164.776 351.629 166.125 353.215C167.182 354.436 167.711 355.986 167.711 357.863C167.711 358.392 167.665 358.948 167.574 359.531C166.991 362.138 165.852 364.444 164.156 366.449C162.461 368.436 159.991 370.004 156.746 371.152C153.501 372.283 149.227 372.848 143.922 372.848ZM203.367 372H186.906V342.469H171.539V332.762H218.734V342.469H203.367V372ZM247.965 372.848C238.395 372.848 231.659 370.861 227.758 366.887C224.477 363.551 222.836 358.729 222.836 352.422V332.789H239.297V352.422C239.297 355.156 239.762 357.316 240.691 358.902C242.022 361.181 244.447 362.32 247.965 362.32C251.52 362.32 253.953 361.181 255.266 358.902C256.195 357.262 256.66 355.102 256.66 352.422V332.789H273.121V352.641C273.121 358.802 271.49 363.551 268.227 366.887C264.307 370.861 257.553 372.848 247.965 372.848ZM306.234 372H279.984V332.762H306.234C316.971 332.762 324.691 334.266 329.395 337.273C333.186 339.698 335.346 342.997 335.875 347.172C336.112 348.977 336.23 350.717 336.23 352.395C336.23 354.053 336.112 355.794 335.875 357.617C335.656 359.422 335.055 361.181 334.07 362.895C333.086 364.59 331.518 366.121 329.367 367.488C327.234 368.855 324.299 369.949 320.562 370.77C316.844 371.59 312.068 372 306.234 372ZM304.676 362.293C313.043 362.293 317.773 360.178 318.867 355.949C319.159 354.764 319.305 353.579 319.305 352.395C319.305 351.191 319.15 350.007 318.84 348.84C318.548 347.655 317.91 346.589 316.926 345.641C315.96 344.674 314.501 343.909 312.551 343.344C310.6 342.76 307.975 342.469 304.676 342.469H296.445V362.293H304.676ZM169.625 436H122.375V396.762H167.465V406.469H138.836V412.621H163.035V420.168H138.836V426.293H169.625V436ZM234.402 436H214.824L192.648 409.449V436H176.188V396.762H195.766L217.941 423.176V396.762H234.402V436ZM272.273 436H255.812V406.469H240.445V396.762H287.641V406.469H272.273V436Z" fill="#F1F2EB"/>
<path d="M760.922 453.152C755.617 453.152 751.342 453.717 748.098 454.848C744.853 455.996 742.383 457.564 740.688 459.551C738.992 461.556 737.853 463.862 737.27 466.469H754.742C756.036 464.609 758.096 463.68 760.922 463.68C763.747 463.68 765.807 464.609 767.102 466.469C767.211 466.651 767.266 466.815 767.266 466.961C767.266 467.453 766.609 467.818 765.297 468.055C764.003 468.31 762.061 468.501 759.473 468.629C756.21 468.775 752.783 469.121 749.191 469.668C741.189 470.908 737.188 474.125 737.188 479.32C737.188 479.758 737.215 480.223 737.27 480.715C737.853 483.322 738.992 485.618 740.688 487.605C742.383 489.611 744.853 491.178 748.098 492.309C751.342 493.457 755.617 494.031 760.922 494.031C766.227 494.031 770.501 493.457 773.746 492.309C776.991 491.178 779.461 489.611 781.156 487.605C782.852 485.618 783.991 483.322 784.574 480.715H767.102C765.807 482.574 763.747 483.504 760.922 483.504C758.096 483.504 756.036 482.574 754.742 480.715C754.651 480.569 754.605 480.432 754.605 480.305C754.605 479.867 755.225 479.539 756.465 479.32C757.723 479.12 759.564 478.947 761.988 478.801C764.431 478.655 767.029 478.418 769.781 478.09C772.534 477.762 775.104 477.188 777.492 476.367C779.898 475.565 781.776 474.371 783.125 472.785C784.182 471.564 784.711 470.014 784.711 468.137C784.711 467.608 784.665 467.052 784.574 466.469C783.991 463.862 782.852 461.556 781.156 459.551C779.461 457.564 776.991 455.996 773.746 454.848C770.501 453.717 766.227 453.152 760.922 453.152ZM820.367 454H803.906V483.531H788.539V493.238H835.734V483.531H820.367V454ZM864.965 453.152C855.395 453.152 848.659 455.139 844.758 459.113C841.477 462.449 839.836 467.271 839.836 473.578V493.211H856.297V473.578C856.297 470.844 856.762 468.684 857.691 467.098C859.022 464.819 861.447 463.68 864.965 463.68C868.52 463.68 870.953 464.819 872.266 467.098C873.195 468.738 873.66 470.898 873.66 473.578V493.211H890.121V473.359C890.121 467.198 888.49 462.449 885.227 459.113C881.307 455.139 874.553 453.152 864.965 453.152ZM923.234 454H896.984V493.238H923.234C933.971 493.238 941.691 491.734 946.395 488.727C950.186 486.302 952.346 483.003 952.875 478.828C953.112 477.023 953.23 475.283 953.23 473.605C953.23 471.947 953.112 470.206 952.875 468.383C952.656 466.578 952.055 464.819 951.07 463.105C950.086 461.41 948.518 459.879 946.367 458.512C944.234 457.145 941.299 456.051 937.562 455.23C933.844 454.41 929.068 454 923.234 454ZM921.676 463.707C930.043 463.707 934.773 465.822 935.867 470.051C936.159 471.236 936.305 472.421 936.305 473.605C936.305 474.809 936.15 475.993 935.84 477.16C935.548 478.345 934.91 479.411 933.926 480.359C932.96 481.326 931.501 482.091 929.551 482.656C927.6 483.24 924.975 483.531 921.676 483.531H913.445V463.707H921.676ZM786.625 390H739.375V429.238H784.465V419.531H755.836V413.379H780.035V405.832H755.836V399.707H786.625V390ZM851.402 390H831.824L809.648 416.551V390H793.188V429.238H812.766L834.941 402.824V429.238H851.402V390ZM889.273 390H872.812V419.531H857.445V429.238H904.641V419.531H889.273V390Z" fill="#F1F2EB"/>
<path d="M84.668 498.848C74.9701 498.848 67.8333 496.852 63.2578 492.859C59.2109 489.341 57.1875 484.529 57.1875 478.422C57.1875 472.315 59.2109 467.493 63.2578 463.957C67.8333 459.983 74.9701 457.996 84.668 457.996C90.3555 457.996 95.0586 458.652 98.7773 459.965C102.496 461.259 105.385 463.036 107.445 465.297C109.505 467.557 110.872 470.146 111.547 473.062H94.2383C92.5065 470.018 89.3164 468.496 84.668 468.496C80.694 468.496 77.7682 469.645 75.8906 471.941C74.3958 473.764 73.6484 475.924 73.6484 478.422C73.6484 480.919 74.3958 483.079 75.8906 484.902C77.7682 487.199 80.694 488.348 84.668 488.348C89.3164 488.348 92.5065 486.816 94.2383 483.754H111.547C110.872 486.689 109.505 489.286 107.445 491.547C105.385 493.807 102.496 495.594 98.7773 496.906C95.0586 498.201 90.3555 498.848 84.668 498.848ZM163.91 498H118.109V458.762H134.57V488.293H163.91V498ZM193.059 498.848C183.361 498.848 176.224 496.852 171.648 492.859C167.602 489.323 165.578 484.501 165.578 478.395C165.578 472.306 167.602 467.493 171.648 463.957C176.224 459.965 183.361 457.969 193.059 457.969C202.757 457.969 209.893 459.965 214.469 463.957C218.516 467.493 220.539 472.306 220.539 478.395C220.539 484.501 218.516 489.323 214.469 492.859C209.893 496.852 202.757 498.848 193.059 498.848ZM193.059 488.32C197.033 488.32 199.949 487.181 201.809 484.902C203.303 483.061 204.051 480.892 204.051 478.395C204.051 475.897 203.303 473.737 201.809 471.914C199.949 469.617 197.033 468.469 193.059 468.469C189.085 468.469 186.159 469.617 184.281 471.914C182.786 473.737 182.039 475.897 182.039 478.395C182.039 480.892 182.786 483.061 184.281 484.902C186.159 487.181 189.085 488.32 193.059 488.32ZM250.316 498.848C240.746 498.848 234.01 496.861 230.109 492.887C226.828 489.551 225.188 484.729 225.188 478.422V458.789H241.648V478.422C241.648 481.156 242.113 483.316 243.043 484.902C244.374 487.181 246.798 488.32 250.316 488.32C253.871 488.32 256.305 487.181 257.617 484.902C258.547 483.262 259.012 481.102 259.012 478.422V458.789H275.473V478.641C275.473 484.802 273.841 489.551 270.578 492.887C266.659 496.861 259.905 498.848 250.316 498.848ZM308.586 498H282.336V458.762H308.586C319.323 458.762 327.043 460.266 331.746 463.273C335.538 465.698 337.698 468.997 338.227 473.172C338.464 474.977 338.582 476.717 338.582 478.395C338.582 480.053 338.464 481.794 338.227 483.617C338.008 485.422 337.406 487.181 336.422 488.895C335.438 490.59 333.87 492.121 331.719 493.488C329.586 494.855 326.651 495.949 322.914 496.77C319.195 497.59 314.419 498 308.586 498ZM307.027 488.293C315.395 488.293 320.125 486.178 321.219 481.949C321.51 480.764 321.656 479.579 321.656 478.395C321.656 477.191 321.501 476.007 321.191 474.84C320.9 473.655 320.262 472.589 319.277 471.641C318.311 470.674 316.853 469.909 314.902 469.344C312.952 468.76 310.327 468.469 307.027 468.469H298.797V488.293H307.027Z" fill="#F1F2EB"/>
<path d="M674.668 311.152C664.97 311.152 657.833 313.148 653.258 317.141C649.211 320.659 647.188 325.471 647.188 331.578C647.188 337.685 649.211 342.507 653.258 346.043C657.833 350.017 664.97 352.004 674.668 352.004C680.355 352.004 685.059 351.348 688.777 350.035C692.496 348.741 695.385 346.964 697.445 344.703C699.505 342.443 700.872 339.854 701.547 336.938H684.238C682.507 339.982 679.316 341.504 674.668 341.504C670.694 341.504 667.768 340.355 665.891 338.059C664.396 336.236 663.648 334.076 663.648 331.578C663.648 329.081 664.396 326.921 665.891 325.098C667.768 322.801 670.694 321.652 674.668 321.652C679.316 321.652 682.507 323.184 684.238 326.246H701.547C700.872 323.311 699.505 320.714 697.445 318.453C695.385 316.193 692.496 314.406 688.777 313.094C685.059 311.799 680.355 311.152 674.668 311.152ZM753.91 312H708.109V351.238H724.57V321.707H753.91V312ZM783.059 311.152C773.361 311.152 766.224 313.148 761.648 317.141C757.602 320.677 755.578 325.499 755.578 331.605C755.578 337.694 757.602 342.507 761.648 346.043C766.224 350.035 773.361 352.031 783.059 352.031C792.757 352.031 799.893 350.035 804.469 346.043C808.516 342.507 810.539 337.694 810.539 331.605C810.539 325.499 808.516 320.677 804.469 317.141C799.893 313.148 792.757 311.152 783.059 311.152ZM783.059 321.68C787.033 321.68 789.949 322.819 791.809 325.098C793.303 326.939 794.051 329.108 794.051 331.605C794.051 334.103 793.303 336.263 791.809 338.086C789.949 340.383 787.033 341.531 783.059 341.531C779.085 341.531 776.159 340.383 774.281 338.086C772.786 336.263 772.039 334.103 772.039 331.605C772.039 329.108 772.786 326.939 774.281 325.098C776.159 322.819 779.085 321.68 783.059 321.68ZM840.316 311.152C830.746 311.152 824.01 313.139 820.109 317.113C816.828 320.449 815.188 325.271 815.188 331.578V351.211H831.648V331.578C831.648 328.844 832.113 326.684 833.043 325.098C834.374 322.819 836.798 321.68 840.316 321.68C843.871 321.68 846.305 322.819 847.617 325.098C848.547 326.738 849.012 328.898 849.012 331.578V351.211H865.473V331.359C865.473 325.198 863.841 320.449 860.578 317.113C856.659 313.139 849.905 311.152 840.316 311.152ZM898.586 312H872.336V351.238H898.586C909.323 351.238 917.043 349.734 921.746 346.727C925.538 344.302 927.698 341.003 928.227 336.828C928.464 335.023 928.582 333.283 928.582 331.605C928.582 329.947 928.464 328.206 928.227 326.383C928.008 324.578 927.406 322.819 926.422 321.105C925.438 319.41 923.87 317.879 921.719 316.512C919.586 315.145 916.651 314.051 912.914 313.23C909.195 312.41 904.419 312 898.586 312ZM897.027 321.707C905.395 321.707 910.125 323.822 911.219 328.051C911.51 329.236 911.656 330.421 911.656 331.605C911.656 332.809 911.501 333.993 911.191 335.16C910.9 336.345 910.262 337.411 909.277 338.359C908.311 339.326 906.853 340.091 904.902 340.656C902.952 341.24 900.327 341.531 897.027 341.531H888.797V321.707H897.027Z" fill="#F1F2EB"/>
<path d="M73.4688 594H57.0078V564.469H41.6406V554.762H88.8359V564.469H73.4688V594ZM142.102 594H94.8516V554.762H139.941V564.469H111.312V570.621H135.512V578.168H111.312V584.293H142.102V594ZM171.77 594.848C162.072 594.848 154.935 592.852 150.359 588.859C146.312 585.341 144.289 580.529 144.289 574.422C144.289 568.315 146.312 563.493 150.359 559.957C154.935 555.983 162.072 553.996 171.77 553.996C177.457 553.996 182.16 554.652 185.879 555.965C189.598 557.259 192.487 559.036 194.547 561.297C196.607 563.557 197.974 566.146 198.648 569.062H181.34C179.608 566.018 176.418 564.496 171.77 564.496C167.796 564.496 164.87 565.645 162.992 567.941C161.497 569.764 160.75 571.924 160.75 574.422C160.75 576.919 161.497 579.079 162.992 580.902C164.87 583.199 167.796 584.348 171.77 584.348C176.418 584.348 179.608 582.816 181.34 579.754H198.648C197.974 582.689 196.607 585.286 194.547 587.547C192.487 589.807 189.598 591.594 185.879 592.906C182.16 594.201 177.457 594.848 171.77 594.848ZM258.805 594H242.344V578.168H221.672V594H205.211V554.762H221.672V570.621H242.344V554.762H258.805V594ZM102.59 658H83.0117L60.8359 631.449V658H44.375V618.762H63.9531L86.1289 645.176V618.762H102.59V658ZM127.828 658H111.367V618.762H127.828V658ZM161.871 658.848C152.173 658.848 145.036 656.852 140.461 652.859C136.414 649.341 134.391 644.529 134.391 638.422C134.391 632.315 136.414 627.493 140.461 623.957C145.036 619.983 152.173 617.996 161.871 617.996C167.559 617.996 172.262 618.652 175.98 619.965C179.699 621.259 182.589 623.036 184.648 625.297C186.708 627.557 188.076 630.146 188.75 633.062H171.441C169.71 630.018 166.52 628.496 161.871 628.496C157.897 628.496 154.971 629.645 153.094 631.941C151.599 633.764 150.852 635.924 150.852 638.422C150.852 640.919 151.599 643.079 153.094 644.902C154.971 647.199 157.897 648.348 161.871 648.348C166.52 648.348 169.71 646.816 171.441 643.754H188.75C188.076 646.689 186.708 649.286 184.648 651.547C182.589 653.807 179.699 655.594 175.98 656.906C172.262 658.201 167.559 658.848 161.871 658.848ZM60.8359 722H44.375V682.762H60.8359V722ZM131.109 722H114.43L110.738 715.574H85.9922L82.3008 722H65.6211L90.7227 682.789H106.008L131.109 722ZM105.188 705.867L98.3789 693.973L91.543 705.867H105.188ZM194.137 722H174.559L152.383 695.449V722H135.922V682.762H155.5L177.676 709.176V682.762H194.137V722Z" fill="#F1F2EB"/>
<path d="M615.469 233H599.008V262.531H583.641V272.238H630.836V262.531H615.469V233ZM684.102 233H636.852V272.238H681.941V262.531H653.312V256.379H677.512V248.832H653.312V242.707H684.102V233ZM713.77 232.152C704.072 232.152 696.935 234.148 692.359 238.141C688.312 241.659 686.289 246.471 686.289 252.578C686.289 258.685 688.312 263.507 692.359 267.043C696.935 271.017 704.072 273.004 713.77 273.004C719.457 273.004 724.16 272.348 727.879 271.035C731.598 269.741 734.487 267.964 736.547 265.703C738.607 263.443 739.974 260.854 740.648 257.938H723.34C721.608 260.982 718.418 262.504 713.77 262.504C709.796 262.504 706.87 261.355 704.992 259.059C703.497 257.236 702.75 255.076 702.75 252.578C702.75 250.081 703.497 247.921 704.992 246.098C706.87 243.801 709.796 242.652 713.77 242.652C718.418 242.652 721.608 244.184 723.34 247.246H740.648C739.974 244.311 738.607 241.714 736.547 239.453C734.487 237.193 731.598 235.406 727.879 234.094C724.16 232.799 719.457 232.152 713.77 232.152ZM800.805 233H784.344V248.832H763.672V233H747.211V272.238H763.672V256.379H784.344V272.238H800.805V233ZM867.77 233H848.191L826.016 259.551V233H809.555V272.238H829.133L851.309 245.824V272.238H867.77V233ZM602.836 169H586.375V208.238H602.836V169ZM636.879 168.152C627.181 168.152 620.044 170.148 615.469 174.141C611.422 177.659 609.398 182.471 609.398 188.578C609.398 194.685 611.422 199.507 615.469 203.043C620.044 207.017 627.181 209.004 636.879 209.004C642.566 209.004 647.27 208.348 650.988 207.035C654.707 205.741 657.596 203.964 659.656 201.703C661.716 199.443 663.083 196.854 663.758 193.938H646.449C644.717 196.982 641.527 198.504 636.879 198.504C632.905 198.504 629.979 197.355 628.102 195.059C626.607 193.236 625.859 191.076 625.859 188.578C625.859 186.081 626.607 183.921 628.102 182.098C629.979 179.801 632.905 178.652 636.879 178.652C641.527 178.652 644.717 180.184 646.449 183.246H663.758C663.083 180.311 661.716 177.714 659.656 175.453C657.596 173.193 654.707 171.406 650.988 170.094C647.27 168.799 642.566 168.152 636.879 168.152ZM686.781 169H670.32V208.238H686.781V169ZM757.055 169H740.375L736.684 175.426H711.938L708.246 169H691.566L716.668 208.211H731.953L757.055 169ZM731.133 185.133L724.324 197.027L717.488 185.133H731.133ZM820.082 169H800.504L778.328 195.551V169H761.867V208.238H781.445L803.621 181.824V208.238H820.082V169Z" fill="#F1F2EB"/>
<path d="M372.625 78H346.375V117.238H372.625C383.362 117.238 391.082 115.734 395.785 112.727C399.577 110.302 401.737 107.003 402.266 102.828C402.503 101.023 402.621 99.2826 402.621 97.6055C402.621 95.9466 402.503 94.2057 402.266 92.3828C402.047 90.5781 401.445 88.819 400.461 87.1055C399.477 85.4102 397.909 83.8789 395.758 82.5117C393.625 81.1445 390.69 80.0508 386.953 79.2305C383.234 78.4102 378.458 78 372.625 78ZM371.066 87.707C379.434 87.707 384.164 89.8216 385.258 94.0508C385.549 95.2357 385.695 96.4206 385.695 97.6055C385.695 98.8086 385.54 99.9935 385.23 101.16C384.939 102.345 384.301 103.411 383.316 104.359C382.35 105.326 380.892 106.091 378.941 106.656C376.991 107.24 374.366 107.531 371.066 107.531H362.836V87.707H371.066ZM462.777 78H447.219C446.508 78.9844 446.007 80.2422 445.715 81.7734C445.46 82.9583 445.077 84.1159 444.566 85.2461C444.056 86.3945 443.172 87.3424 441.914 88.0898C440.674 88.8555 438.824 89.2656 436.363 89.3203H425.672V78H409.211V117.238H435.98C442.379 117.238 447.538 116.755 451.457 115.789C455.395 114.841 458.266 113.337 460.07 111.277C461.875 109.236 462.777 106.565 462.777 103.266C462.777 100.513 462.148 98.1979 460.891 96.3203C459.651 94.4427 457.682 92.957 454.984 91.8633C457.591 90.7878 459.277 89.4935 460.043 87.9805C460.827 86.4857 461.31 84.8359 461.492 83.0312C461.674 81.4271 462.103 79.75 462.777 78ZM425.672 99L435.078 99.0273C437.703 99.0273 439.772 99.1458 441.285 99.3828C442.798 99.6198 443.91 99.9388 444.621 100.34C445.35 100.759 445.815 101.215 446.016 101.707C446.216 102.217 446.316 102.737 446.316 103.266C446.316 103.794 446.216 104.314 446.016 104.824C445.815 105.335 445.35 105.79 444.621 106.191C443.91 106.611 442.798 106.939 441.285 107.176C439.772 107.413 437.703 107.531 435.078 107.531H425.672V99ZM516.617 78H469.367V117.238H514.457V107.531H485.828V101.379H510.027V93.832H485.828V87.707H516.617V78ZM584.703 78H568.023L564.332 84.4258H539.586L535.895 78H519.215L544.316 117.211H559.602L584.703 78ZM558.781 94.1328L551.973 106.027L545.137 94.1328H558.781ZM664.109 78H647.648V103.02L632.938 78H620.66L605.977 103.02V78H589.516V117.238H609.066L626.812 89.2109L644.531 117.238H664.109V78ZM720.109 78H672.859V117.238H717.949V107.531H689.32V101.379H713.52V93.832H689.32V87.707H720.109V78ZM780.238 78H764.68C763.969 78.9844 763.467 80.2422 763.176 81.7734C762.921 82.9583 762.538 84.1159 762.027 85.2461C761.517 86.3945 760.633 87.3424 759.375 88.0898C758.135 88.8555 756.285 89.2656 753.824 89.3203H743.133V78H726.672V117.238H753.441C759.84 117.238 764.999 116.755 768.918 115.789C772.855 114.841 775.727 113.337 777.531 111.277C779.336 109.236 780.238 106.565 780.238 103.266C780.238 100.513 779.609 98.1979 778.352 96.3203C777.112 94.4427 775.143 92.957 772.445 91.8633C775.052 90.7878 776.738 89.4935 777.504 87.9805C778.288 86.4857 778.771 84.8359 778.953 83.0312C779.135 81.4271 779.564 79.75 780.238 78ZM743.133 99L752.539 99.0273C755.164 99.0273 757.233 99.1458 758.746 99.3828C760.259 99.6198 761.371 99.9388 762.082 100.34C762.811 100.759 763.276 101.215 763.477 101.707C763.677 102.217 763.777 102.737 763.777 103.266C763.777 103.794 763.677 104.314 763.477 104.824C763.276 105.335 762.811 105.79 762.082 106.191C761.371 106.611 760.259 106.939 758.746 107.176C757.233 107.413 755.164 107.531 752.539 107.531H743.133V99Z" fill="#F1F2EB"/>
<path d="M113.156 786H91.5938V753.769H113.156C121.976 753.769 128.317 755.004 132.181 757.475C135.295 759.466 137.07 762.176 137.504 765.605C137.699 767.088 137.796 768.518 137.796 769.896C137.796 771.258 137.699 772.688 137.504 774.186C137.324 775.668 136.83 777.113 136.021 778.521C135.213 779.913 133.925 781.171 132.158 782.294C130.406 783.417 127.995 784.315 124.926 784.989C121.871 785.663 117.948 786 113.156 786ZM111.876 778.026C118.749 778.026 122.635 776.289 123.533 772.815C123.773 771.842 123.893 770.869 123.893 769.896C123.893 768.907 123.765 767.934 123.511 766.976C123.271 766.002 122.747 765.126 121.938 764.348C121.145 763.554 119.947 762.925 118.345 762.461C116.743 761.982 114.586 761.742 111.876 761.742H105.115V778.026H111.876ZM187.21 786H174.43C173.846 785.191 173.434 784.158 173.194 782.9C172.985 781.927 172.67 780.976 172.251 780.048C171.832 779.104 171.105 778.326 170.072 777.712C169.054 777.083 167.534 776.746 165.513 776.701H156.73V786H143.209V753.769H165.198C170.454 753.769 174.692 754.165 177.911 754.959C181.146 755.738 183.504 756.973 184.986 758.665C186.469 760.342 187.21 762.536 187.21 765.246C187.21 767.507 186.693 769.409 185.66 770.951C184.642 772.493 183.025 773.714 180.809 774.612C182.95 775.496 184.335 776.559 184.964 777.802C185.608 779.03 186.005 780.385 186.154 781.867C186.304 783.185 186.656 784.562 187.21 786ZM156.73 768.75L164.457 768.728C166.613 768.728 168.313 768.63 169.556 768.436C170.799 768.241 171.712 767.979 172.296 767.649C172.895 767.305 173.277 766.931 173.441 766.526C173.606 766.107 173.688 765.68 173.688 765.246C173.688 764.812 173.606 764.385 173.441 763.966C173.277 763.547 172.895 763.172 172.296 762.843C171.712 762.498 170.799 762.229 169.556 762.034C168.313 761.84 166.613 761.742 164.457 761.742H156.73V768.75ZM231.436 786H192.623V753.769H229.661V761.742H206.145V766.796H226.022V772.995H206.145V778.026H231.436V786ZM287.363 786H273.662L270.63 780.722H250.303L247.271 786H233.569L254.188 753.791H266.744L287.363 786ZM266.07 772.748L260.478 762.978L254.862 772.748H266.07ZM152.867 839H139.346V818.448L127.262 839H117.177L105.115 818.448V839H91.5938V806.769H107.653L122.23 829.791L136.785 806.769H152.867V839ZM198.867 839H160.055V806.769H197.093V814.742H173.576V819.796H193.454V825.995H173.576V831.026H198.867V839ZM248.259 839H235.479C234.895 838.191 234.483 837.158 234.243 835.9C234.034 834.927 233.719 833.976 233.3 833.048C232.881 832.104 232.154 831.326 231.121 830.712C230.103 830.083 228.583 829.746 226.562 829.701H217.779V839H204.258V806.769H226.247C231.503 806.769 235.741 807.165 238.96 807.959C242.194 808.738 244.553 809.973 246.035 811.665C247.518 813.342 248.259 815.536 248.259 818.246C248.259 820.507 247.742 822.409 246.709 823.951C245.691 825.493 244.074 826.714 241.857 827.612C243.999 828.496 245.384 829.559 246.013 830.802C246.657 832.03 247.053 833.385 247.203 834.867C247.353 836.185 247.705 837.562 248.259 839ZM217.779 821.75L225.506 821.728C227.662 821.728 229.362 821.63 230.604 821.436C231.847 821.241 232.761 820.979 233.345 820.649C233.944 820.305 234.326 819.931 234.49 819.526C234.655 819.107 234.737 818.68 234.737 818.246C234.737 817.812 234.655 817.385 234.49 816.966C234.326 816.547 233.944 816.172 233.345 815.843C232.761 815.498 231.847 815.229 230.604 815.034C229.362 814.84 227.662 814.742 225.506 814.742H217.779V821.75Z" fill="#F1F2EB"/>
</svg>
