<?xml version="1.0" encoding="UTF-8"?>
<!DOCTYPE svg PUBLIC "-//W3C//DTD SVG 1.1//EN" "http://www.w3.org/Graphics/SVG/1.1/DTD/svg11.dtd">
<svg xmlns="http://www.w3.org/2000/svg" version="1.1" width="930px" height="600px" style="shape-rendering:geometricPrecision; text-rendering:geometricPrecision; image-rendering:optimizeQuality; fill-rule:evenodd; clip-rule:evenodd" xmlns:xlink="http://www.w3.org/1999/xlink">
<g><path style="opacity:1" fill="#000000" d="M 47.5,219.5 C 324.833,219.5 602.167,219.5 879.5,219.5C 879.5,240.833 879.5,262.167 879.5,283.5C 868.833,283.5 858.167,283.5 847.5,283.5C 847.5,294.167 847.5,304.833 847.5,315.5C 836.833,315.5 826.167,315.5 815.5,315.5C 815.5,326.167 815.5,336.833 815.5,347.5C 804.833,347.5 794.167,347.5 783.5,347.5C 783.5,358.167 783.5,368.833 783.5,379.5C 708.833,379.5 634.167,379.5 559.5,379.5C 559.5,368.833 559.5,358.167 559.5,347.5C 548.833,347.5 538.167,347.5 527.5,347.5C 527.5,336.833 527.5,326.167 527.5,315.5C 516.833,315.5 506.167,315.5 495.5,315.5C 495.5,294.167 495.5,272.833 495.5,251.5C 474.167,251.5 452.833,251.5 431.5,251.5C 431.5,272.833 431.5,294.167 431.5,315.5C 420.833,315.5 410.167,315.5 399.5,315.5C 399.5,326.167 399.5,336.833 399.5,347.5C 388.833,347.5 378.167,347.5 367.5,347.5C 367.5,358.167 367.5,368.833 367.5,379.5C 292.833,379.5 218.167,379.5 143.5,379.5C 143.5,368.833 143.5,358.167 143.5,347.5C 132.833,347.5 122.167,347.5 111.5,347.5C 111.5,336.833 111.5,326.167 111.5,315.5C 100.833,315.5 90.1667,315.5 79.5,315.5C 79.5,304.833 79.5,294.167 79.5,283.5C 68.8333,283.5 58.1667,283.5 47.5,283.5C 47.5,262.167 47.5,240.833 47.5,219.5 Z"/></g>
<g><path style="opacity:1" fill="#fefffe" d="M 143.5,283.5 C 132.833,283.5 122.167,283.5 111.5,283.5C 111.5,272.833 111.5,262.167 111.5,251.5C 122.167,251.5 132.833,251.5 143.5,251.5C 143.5,262.167 143.5,272.833 143.5,283.5 Z"/></g>
<g><path style="opacity:1" fill="#fefffe" d="M 207.5,283.5 C 196.833,283.5 186.167,283.5 175.5,283.5C 175.5,272.833 175.5,262.167 175.5,251.5C 186.167,251.5 196.833,251.5 207.5,251.5C 207.5,262.167 207.5,272.833 207.5,283.5 Z"/></g>
<g><path style="opacity:1" fill="#fefffe" d="M 595.5,283.5 C 584.833,283.5 574.167,283.5 563.5,283.5C 563.5,272.833 563.5,262.167 563.5,251.5C 574.167,251.5 584.833,251.5 595.5,251.5C 595.5,262.167 595.5,272.833 595.5,283.5 Z"/></g>
<g><path style="opacity:1" fill="#fefffe" d="M 659.5,283.5 C 648.833,283.5 638.167,283.5 627.5,283.5C 627.5,272.833 627.5,262.167 627.5,251.5C 638.167,251.5 648.833,251.5 659.5,251.5C 659.5,262.167 659.5,272.833 659.5,283.5 Z"/></g>
<g><path style="opacity:1" fill="#fefffe" d="M 143.5,283.5 C 154.167,283.5 164.833,283.5 175.5,283.5C 175.5,294.167 175.5,304.833 175.5,315.5C 164.833,315.5 154.167,315.5 143.5,315.5C 143.5,304.833 143.5,294.167 143.5,283.5 Z"/></g>
<g><path style="opacity:1" fill="#000000" d="M 175.5,283.5 C 186.167,283.5 196.833,283.5 207.5,283.5C 207.5,294.167 207.5,304.833 207.5,315.5C 196.833,315.5 186.167,315.5 175.5,315.5C 175.5,304.833 175.5,294.167 175.5,283.5 Z"/></g>
<g><path style="opacity:1" fill="#fefffe" d="M 207.5,283.5 C 218.167,283.5 228.833,283.5 239.5,283.5C 239.5,294.167 239.5,304.833 239.5,315.5C 228.833,315.5 218.167,315.5 207.5,315.5C 207.5,304.833 207.5,294.167 207.5,283.5 Z"/></g>
<g><path style="opacity:1" fill="#fefffe" d="M 595.5,283.5 C 606.167,283.5 616.833,283.5 627.5,283.5C 627.5,294.167 627.5,304.833 627.5,315.5C 616.833,315.5 606.167,315.5 595.5,315.5C 595.5,304.833 595.5,294.167 595.5,283.5 Z"/></g>
<g><path style="opacity:1" fill="#000000" d="M 627.5,283.5 C 638.167,283.5 648.833,283.5 659.5,283.5C 659.5,294.167 659.5,304.833 659.5,315.5C 648.833,315.5 638.167,315.5 627.5,315.5C 627.5,304.833 627.5,294.167 627.5,283.5 Z"/></g>
<g><path style="opacity:1" fill="#fefffe" d="M 659.5,283.5 C 670.167,283.5 680.833,283.5 691.5,283.5C 691.5,294.167 691.5,304.833 691.5,315.5C 680.833,315.5 670.167,315.5 659.5,315.5C 659.5,304.833 659.5,294.167 659.5,283.5 Z"/></g>
<g><path style="opacity:1" fill="#fefffe" d="M 175.5,315.5 C 186.167,315.5 196.833,315.5 207.5,315.5C 207.5,326.167 207.5,336.833 207.5,347.5C 196.833,347.5 186.167,347.5 175.5,347.5C 175.5,336.833 175.5,326.167 175.5,315.5 Z"/></g>
<g><path style="opacity:1" fill="#fefffe" d="M 239.5,315.5 C 250.167,315.5 260.833,315.5 271.5,315.5C 271.5,326.167 271.5,336.833 271.5,347.5C 260.833,347.5 250.167,347.5 239.5,347.5C 239.5,336.833 239.5,326.167 239.5,315.5 Z"/></g>
<g><path style="opacity:1" fill="#fefffe" d="M 627.5,315.5 C 638.167,315.5 648.833,315.5 659.5,315.5C 659.5,326.167 659.5,336.833 659.5,347.5C 648.833,347.5 638.167,347.5 627.5,347.5C 627.5,336.833 627.5,326.167 627.5,315.5 Z"/></g>
<g><path style="opacity:1" fill="#fefffe" d="M 691.5,315.5 C 702.167,315.5 712.833,315.5 723.5,315.5C 723.5,326.167 723.5,336.833 723.5,347.5C 712.833,347.5 702.167,347.5 691.5,347.5C 691.5,336.833 691.5,326.167 691.5,315.5 Z"/></g>
</svg>
